<svg xmlns="http://www.w3.org/2000/svg" viewBox="0 0 1600 200">
  <defs>
    <linearGradient id="bg" x1="0" y1="0" x2="1" y2="1">
      <stop offset="0" stop-color="#127937"/>
      <stop offset="1" stop-color="#1ec95b"/>
    </linearGradient>
  </defs>
  <rect width="1600" height="200" fill="url(#bg)"/>
  <g fill="#ffffff" opacity="0.12">
    <circle cx="120" cy="40" r="70"/>
    <circle cx="380" cy="170" r="90"/>
    <circle cx="700" cy="30" r="60"/>
    <circle cx="980" cy="160" r="100"/>
    <circle cx="1260" cy="40" r="80"/>
    <circle cx="1500" cy="150" r="70"/>
  </g>
  <g fill="#ffffff" opacity="0.9">
    <path d="M1180 70c-3-6-12-6-14 0-2 5 2 10 14 17 12-7 16-12 14-17-2-6-11-6-14 0z"/>
    <path d="M1400 110c-2-4-8-4-10 0-1 3 1 7 10 12 9-5 11-9 10-12-2-4-8-4-10 0z"/>
    <path d="M260 90c-2-4-8-4-10 0-1 3 1 7 10 12 9-5 11-9 10-12-2-4-8-4-10 0z"/>
  </g>
</svg>
